<?xml version="1.0"?>
<svg xmlns="http://www.w3.org/2000/svg" xmlns:xlink="http://www.w3.org/1999/xlink" version="1.1" id="Capa_1" x="0px" y="0px" viewBox="0 0 512.142 512.142" style="enable-background:new 0 0 512.142 512.142;" xml:space="preserve" width="512px" height="512px" class=""><g><path style="fill:#546E7A;" d="M416.018,106.808c-5.891,0.011-10.675-4.757-10.686-10.648c-0.005-2.84,1.123-5.565,3.134-7.571  l85.333-85.333c4.093-4.237,10.845-4.354,15.083-0.262s4.354,10.845,0.262,15.083c-0.086,0.089-0.173,0.176-0.262,0.262  l-85.333,85.333C421.553,105.674,418.845,106.802,416.018,106.808z" data-original="#546E7A" class=""/><path style="fill:#212628" d="M432.551,97.592l-18.005-18.005c-10.78-10.752-27.642-12.421-40.32-3.989L324.775,108.6  c-4.903,3.266-6.229,9.888-2.963,14.791c0.392,0.588,0.841,1.136,1.342,1.636l64,64c1.999,1.994,4.707,3.114,7.531,3.115h1.045  c3.181-0.312,6.055-2.035,7.829-4.693l32.981-49.472C445.008,125.285,443.338,108.381,432.551,97.592z" data-original="#607D8B" class="" data-old_color="#607D8B"/><g>
	<path style="fill:#FFFFFF" d="M124.903,291.256l-32-32c-2.004-1.999-4.721-3.12-7.552-3.115c-2.949-0.447-5.899,0.798-7.637,3.221   L9.447,329.507C-3.053,342-3.06,362.261,9.433,374.762c5.99,5.993,14.112,9.367,22.585,9.38c8.431,0.02,16.522-3.32,22.485-9.28   l70.251-68.416c4.194-4.137,4.241-10.89,0.105-15.085c-0.035-0.035-0.07-0.07-0.105-0.105L124.903,291.256z" data-original="#90A4AE" class="" data-old_color="#90A4AE"/>
	<path style="fill:#FFFFFF" d="M252.903,419.256l-32-32c-1.864-2.201-4.679-3.362-7.552-3.115   c-2.854,0.017-5.581,1.178-7.573,3.221l-68.267,70.144c-12.501,12.493-12.508,32.754-0.015,45.255   c5.974,5.978,14.07,9.35,22.522,9.38c8.431,0.02,16.522-3.32,22.485-9.28l70.251-68.416c4.194-4.137,4.241-10.89,0.105-15.085   c-0.035-0.035-0.07-0.07-0.105-0.105H252.903z" data-original="#90A4AE" class="" data-old_color="#90A4AE"/>
</g><path style="fill:#FFFFFF" d="M405.885,177.592l-71.317-71.317c-37.488-37.477-98.256-37.477-135.744,0l-67.691,67.648  c-4.164,4.165-4.164,10.917,0,15.083l192,192c4.165,4.164,10.917,4.164,15.083,0l67.669-67.669  C443.291,275.819,443.291,215.109,405.885,177.592z" data-original="#CFD8DC" class="" data-old_color="#CFD8DC"/><circle style="fill:#191E20" cx="298.685" cy="213.475" r="42.667" data-original="#455A64" class="active-path" data-old_color="#455A64"/><path style="fill:#212628" d="M344.509,372.216L139.943,167.651c-12.486-12.435-32.677-12.435-45.163,0l-33.92,33.899  c-12.45,12.489-12.45,32.695,0,45.184l204.587,204.565c12.486,12.435,32.677,12.435,45.163,0l33.92-33.92  C356.96,404.887,356.95,384.697,344.509,372.216z" data-original="#607D8B" class="" data-old_color="#607D8B"/><path d="M32.018,384.142c-17.673,0.008-32.006-14.312-32.014-31.986c-0.004-8.495,3.371-16.644,9.38-22.649l68.267-70.144  c4.124-4.224,10.891-4.305,15.115-0.181c4.224,4.124,4.305,10.891,0.181,15.115l-68.373,70.208  c-4.423,3.891-4.853,10.632-0.962,15.054s10.632,4.853,15.054,0.962c0.295-0.26,0.576-0.536,0.841-0.827l70.4-68.523  c4.224-4.124,10.991-4.043,15.115,0.181s4.043,10.991-0.181,15.115l-70.293,68.395C48.569,380.826,40.462,384.166,32.018,384.142z" data-original="#000000" class="" style="fill:#000000"/><path d="M160.018,512.142c-17.673,0.02-32.016-14.291-32.036-31.964c-0.01-8.503,3.365-16.66,9.38-22.671l68.267-70.144  c4.124-4.224,10.891-4.305,15.115-0.181c4.224,4.124,4.305,10.891,0.181,15.115l0,0l-68.352,70.208  c-4.423,3.891-4.853,10.632-0.962,15.054s10.632,4.853,15.054,0.962c0.295-0.26,0.576-0.536,0.841-0.827l70.4-68.523  c4.224-4.124,10.991-4.043,15.115,0.181s4.043,10.991-0.181,15.115l-70.293,68.395C176.569,508.826,168.462,512.166,160.018,512.142  z" data-original="#000000" class="" style="fill:#000000"/><path d="M288.018,460.643c-8.474,0.015-16.604-3.348-22.592-9.344L60.861,246.734c-12.45-12.489-12.45-32.695,0-45.184  l33.899-33.899c12.489-12.45,32.695-12.45,45.184,0l204.565,204.565c12.45,12.489,12.45,32.695,0,45.184l-33.899,33.899  C304.622,457.295,296.492,460.658,288.018,460.643z M117.351,179.64c-2.816,0.006-5.516,1.126-7.509,3.115l-33.899,33.877  c-4.066,4.148-4.066,10.786,0,14.933l204.565,204.565c4.148,4.065,10.786,4.065,14.933,0l33.899-33.899  c4.066-4.148,4.066-10.786,0-14.933l-204.48-204.565C122.863,180.753,120.164,179.641,117.351,179.64z" data-original="#000000" class="" style="fill:#000000"/><path d="M330.685,384.142c-5.891,0.011-10.675-4.757-10.686-10.648c-0.005-2.84,1.123-5.565,3.134-7.571l67.648-67.648  c29.161-29.158,29.163-76.434,0.005-105.595c-0.002-0.002-0.004-0.004-0.005-0.005l-71.296-71.317  c-29.184-29.104-76.416-29.104-105.6,0l-67.648,67.669c-4.237,4.092-10.99,3.975-15.083-0.262c-3.992-4.134-3.992-10.687,0-14.82  l67.648-67.669c37.49-37.491,98.274-37.491,135.765-0.001c0,0,0.001,0.001,0.001,0.001l71.317,71.317  c37.491,37.49,37.491,98.274,0.001,135.764c0,0-0.001,0.001-0.001,0.001l-67.648,67.648  C336.236,383.013,333.519,384.141,330.685,384.142z" data-original="#000000" class="" style="fill:#000000"/><path d="M298.685,256.142c-23.564,0-42.667-19.103-42.667-42.667s19.103-42.667,42.667-42.667s42.667,19.103,42.667,42.667  S322.249,256.142,298.685,256.142z M298.685,192.142c-11.782,0-21.333,9.551-21.333,21.333c0,11.782,9.551,21.333,21.333,21.333  s21.333-9.551,21.333-21.333C320.018,201.693,310.467,192.142,298.685,192.142z" data-original="#000000" class="" style="fill:#000000"/><path d="M394.685,192.142c-5.891-0.003-10.664-4.781-10.661-10.672c0.001-2.101,0.623-4.155,1.786-5.904l32.981-49.557  c2.789-4.215,2.237-9.809-1.323-13.397l-18.005-18.005c-3.596-3.487-9.135-4.002-13.312-1.237l-49.557,32.981  c-4.901,3.27-11.525,1.947-14.795-2.955s-1.947-11.525,2.955-14.795l49.472-32.981c12.678-8.432,29.54-6.763,40.32,3.989  l18.005,18.005c10.752,10.78,12.421,27.642,3.989,40.32l-32.981,49.451C401.583,190.354,398.252,192.14,394.685,192.142z" data-original="#000000" class="" style="fill:#000000"/><path d="M416.018,106.808c-5.891,0.011-10.675-4.757-10.686-10.648c-0.005-2.84,1.123-5.565,3.134-7.571l85.333-85.333  c4.093-4.237,10.845-4.354,15.083-0.262s4.354,10.845,0.262,15.083c-0.086,0.089-0.173,0.176-0.262,0.262l-85.333,85.333  C421.553,105.674,418.845,106.802,416.018,106.808z" data-original="#000000" class="" style="fill:#000000"/></g> </svg>
