<?xml version="1.0"?>
<svg xmlns="http://www.w3.org/2000/svg" xmlns:xlink="http://www.w3.org/1999/xlink" xmlns:svgjs="http://svgjs.com/svgjs" version="1.1" width="512" height="512" x="0" y="0" viewBox="0 0 512 512" style="enable-background:new 0 0 512 512" xml:space="preserve" class=""><g transform="matrix(0.79,0,0,0.7899999999999999,53.760006558894986,53.76000010013584)"><g xmlns="http://www.w3.org/2000/svg"><path d="m75 512h362c8.284 0 15-6.716 15-15v-106h45c5.532 0 10.615-3.045 13.225-7.922s2.324-10.795-.744-15.398l-60-90c-2.782-4.173-7.466-6.68-12.481-6.68-10.211 0-351.789 0-362 0-5.015 0-9.699 2.506-12.481 6.68l-60 90c-3.068 4.603-3.354 10.521-.744 15.398s7.693 7.922 13.225 7.922h45v106c0 8.284 6.716 15 15 15zm15-121h106c5.015 0 9.699-2.506 12.481-6.68l32.519-48.778v146.458h-151zm332 91h-151v-146.458l32.519 48.778c2.782 4.173 7.466 6.68 12.481 6.68h106zm6.972-181 40 60h-144.944l-40-60zm-345.944 0h144.944l-40 60h-144.944z" fill="#ffffff" data-original="#000000" style="" class=""/><path d="m226 241h60c8.284 0 15-6.716 15-15v-106h15c5.532 0 10.615-3.045 13.225-7.922s2.324-10.795-.744-15.398l-60-90c-2.782-4.174-7.466-6.68-12.481-6.68s-9.699 2.506-12.481 6.68l-60 90c-3.068 4.603-3.354 10.521-.744 15.398s7.693 7.922 13.225 7.922h15v106c0 8.284 6.716 15 15 15zm30-198.958 31.972 47.958h-1.972c-8.284 0-15 6.716-15 15v106h-30v-106c0-8.284-6.716-15-15-15h-1.972z" fill="#ffffff" data-original="#000000" style="" class=""/><path d="m76 241h60c8.284 0 15-6.716 15-15v-46h15c5.532 0 10.615-3.045 13.225-7.922s2.324-10.796-.744-15.398l-60-90c-2.782-4.174-7.466-6.68-12.481-6.68s-9.699 2.506-12.481 6.68l-60 90c-3.068 4.603-3.354 10.521-.744 15.398s7.693 7.922 13.225 7.922h15v46c0 8.284 6.716 15 15 15zm30-138.958 31.972 47.958h-1.972c-8.284 0-15 6.716-15 15v46h-30v-46c0-8.284-6.716-15-15-15h-1.972z" fill="#ffffff" data-original="#000000" style="" class=""/><path d="m332.775 172.078c2.61 4.877 7.693 7.922 13.225 7.922h15v46c0 8.284 6.716 15 15 15h60c8.284 0 15-6.716 15-15v-46h15c5.532 0 10.615-3.045 13.225-7.922s2.324-10.796-.744-15.398l-60-90c-2.782-4.174-7.466-6.68-12.481-6.68s-9.699 2.506-12.481 6.68l-60 90c-3.068 4.602-3.354 10.521-.744 15.398zm73.225-70.036 31.972 47.958h-1.972c-8.284 0-15 6.716-15 15v46h-30v-46c0-8.284-6.716-15-15-15h-1.972z" fill="#ffffff" data-original="#000000" style="" class=""/></g></g></svg>
